<?xml version="1.0" encoding="UTF-8" standalone="no"?>
<!-- Created with Inkscape (http://www.inkscape.org/) -->

<svg
   width="120.30109mm"
   height="40.602215mm"
   viewBox="0 0 120.30109 40.602215"
   version="1.1"
   id="svg1"
   xml:space="preserve"
   inkscape:version="1.3.2 (091e20ef0f, 2023-11-25, custom)"
   sodipodi:docname="ratib-alhaddad-title.svg"
   xmlns:inkscape="http://www.inkscape.org/namespaces/inkscape"
   xmlns:sodipodi="http://sodipodi.sourceforge.net/DTD/sodipodi-0.dtd"
   xmlns="http://www.w3.org/2000/svg"
   xmlns:svg="http://www.w3.org/2000/svg"><sodipodi:namedview
     id="namedview1"
     pagecolor="#ffffff"
     bordercolor="#000000"
     borderopacity="0.25"
     inkscape:showpageshadow="2"
     inkscape:pageopacity="0.0"
     inkscape:pagecheckerboard="0"
     inkscape:deskcolor="#d1d1d1"
     inkscape:document-units="mm"
     inkscape:zoom="0.7786055"
     inkscape:cx="357.69077"
     inkscape:cy="159.25909"
     inkscape:window-width="1876"
     inkscape:window-height="1002"
     inkscape:window-x="0"
     inkscape:window-y="0"
     inkscape:window-maximized="1"
     inkscape:current-layer="layer1"
     inkscape:clip-to-page="true" /><defs
     id="defs1" /><g
     inkscape:label="Layer 1"
     inkscape:groupmode="layer"
     id="layer1"
     transform="translate(-18.849642,-29.11602)"><text
       xml:space="preserve"
       style="font-size:3.175px;font-family:'Nimbus Sans';-inkscape-font-specification:'Nimbus Sans';text-align:end;text-anchor:end;fill:#000000;stroke-width:0.264583"
       x="102.71182"
       y="101.77244"
       id="text37"><tspan
         sodipodi:role="line"
         id="tspan37"
         x="102.71182"
         y="101.77244"
         style="font-style:normal;font-variant:normal;font-weight:normal;font-stretch:normal;font-family:'AALMAGHRIBI 1445';-inkscape-font-specification:'AALMAGHRIBI 1445, ';stroke-width:0.264583" /></text><g
       id="g124"
       transform="translate(-4.5053786,-127.215)"
       style="fill:#808000"><path
         id="path122"
         style="fill:#808000;stroke-width:5.77019"
         d="m 67.056299,159.98913 c -5.630342,1.59313 -11.62637,4.77132 -16.985264,7.21631 v 1.43213 c 3.667207,-2.13435 12.706212,-6.64873 16.322973,-7.66606 z m -0.806314,3.13759 c -5.630342,1.59313 -10.7858,4.76616 -16.144694,7.21115 v 1.43177 c 3.667208,-2.13436 12.331603,-6.67563 15.948364,-7.69295 z m 73.987115,2.20051 c -4.84023,1.26723 -9.43455,3.50931 -14.04143,5.45413 v 1.13893 c 3.15259,-1.69774 10.92337,-5.28879 14.03259,-6.098 z m -113.062208,0.22396 c -1.525443,0.0386 -2.860049,1.46403 -2.66242,2.32869 2.651743,-1.20753 3.389973,-1.48447 3.193209,-0.13408 -0.08014,0.55013 -0.990016,1.21655 -2.048383,1.53565 l -0.724541,0.76911 c 2.033934,0.0703 5.715401,-1.16887 4.904922,-2.651 -0.763009,-1.39518 -1.747521,-1.87151 -2.662787,-1.84837 z m 79.045638,1.21333 c -0.45122,0.004 -0.95688,0.13215 -1.50286,0.42066 -0.94331,0.49796 -0.24134,2.79077 1.45792,2.9431 -0.24927,0.84019 -4.09283,4.59734 -5.78453,5.11672 3.11584,-0.25677 6.28307,-2.85631 7.4782,-4.91413 0.90776,-1.56303 0.30662,-3.58568 -1.64873,-3.56635 z m 0.65603,1.48997 c 0.27507,-0.002 0.38769,0.22001 0.41734,0.77648 0,0 -0.75958,0.52166 -1.12715,0.36356 -0.94873,-0.41084 -0.56062,-0.64387 -0.56062,-0.64387 0.58751,-0.28505 0.98365,-0.48064 1.24354,-0.49506 0.009,-5.8e-4 0.018,-10e-4 0.0269,-10e-4 z m -38.379284,4.08019 c -0.06743,0.001 -0.145883,0.0441 -0.235375,0.14034 -0.204372,0.22008 0.288955,2.03351 -0.596723,2.70441 -0.745386,0.56467 -0.644701,-2.91629 -1.028428,-1.9353 h 0.0026 c -0.475349,1.21509 -0.241251,3.52284 0.846833,3.17258 0.569866,-0.18343 0.881832,-0.3714 1.085521,-1.00485 0,0 0.599465,0.70299 1.356626,0.0807 1.104712,-0.90811 0.5039,-2.4392 0.5039,-2.4392 l -0.679603,-0.42029 c 0,0 0.643091,1.54672 -0.05672,1.98871 -0.74083,0.46774 -0.649566,-2.29757 -1.198604,-2.28707 z m 53.196084,19.22703 c -3.22854,1.67157 -6.33005,2.14445 -7.3235,3.47978 v 0.53374 c 4.23541,-2.04469 7.3235,-2.96192 7.3235,-3.55161 z" /><path
         id="path123"
         style="fill:#808000;stroke-width:5.77019"
         d="m 91.063747,156.33106 -1.216651,2.27234 c 0.957842,11.69791 3.176501,16.52017 2.767398,28.85528 l 1.174661,-2.89853 c 0.774532,-8.7191 -0.611316,-13.37262 -1.821852,-22.69171 0.923115,1.6366 1.995781,3.98771 1.299906,-0.0866 -0.320651,-1.87733 -1.81627,-4.55765 -2.203462,-5.45082 z m 31.333153,0.63835 -1.21665,2.27197 c 0.95785,11.69791 3.17319,20.16093 2.76408,32.49603 l 1.336,-1.33599 c 0.77452,-8.71905 -0.76935,-18.57591 -1.97987,-27.895 0.92311,1.6366 1.99578,3.98808 1.2999,-0.0862 -0.32065,-1.87733 -1.81628,-4.55765 -2.20346,-5.45082 z m -78.791846,0.0357 -1.216653,2.56444 c 0.957846,13.19101 3.176134,22.73407 2.76703,36.64363 l 1.383515,-3.33686 c 0.774529,-9.832 -0.81685,-19.11584 -2.027388,-29.62439 0.923117,1.84525 1.995786,4.49599 1.299901,-0.0983 -0.320649,-2.11697 -1.819231,-5.14128 -2.206405,-6.14847 z m 32.275389,0.0446 -1.365834,2.64217 c 0,0 3.590284,16.01506 2.638845,20.23446 -0.479619,2.12678 -4.356822,1.55428 -6.491397,1.87857 -0.911217,0.91122 -1.846151,1.42729 -1.911358,2.78214 8.285358,0.70015 8.541072,0.72522 10.20692,1.65793 -3.575785,1.21728 -7.457731,4.11202 -10.75539,1.86973 -1.964751,-1.33597 -2.077234,-4.16309 -2.469037,-6.53044 -0.80938,-3.90024 -2.088691,-7.37784 -4.520367,-10.62721 l -0.873721,-1.12714 -0.03278,3.69748 1.329737,2.65689 c 1.307468,2.75682 2.235378,5.20875 2.862432,8.88898 -0.427627,0.67759 -6.891584,6.98083 -12.469684,8.02409 -2.51363,0.4701 -2.096269,-6.10979 -2.096269,-6.10979 l -1.416667,2.55228 c -0.0139,1.79789 -0.203972,4.31519 0.668184,5.45966 3.163625,4.15142 12.042681,-3.90246 15.627532,-6.98057 v -1.83953 c 0.631374,1.98505 1.434861,4.09846 3.43816,4.63971 5.733605,1.54986 8.504014,-4.3194 19.211924,-4.01646 0.944242,-0.94425 2.185428,-1.97847 1.824796,-3.38439 -3.56546,-0.0498 -10.261203,-0.0706 -12.631018,-1.03174 0,0 1.460685,-0.74976 1.673034,-2.38837 0.741116,-5.71388 -0.700162,-11.47984 -1.494017,-17.18454 l 1.491073,1.2406 v -0.55768 c -0.63172,-2.21154 -1.551526,-4.32582 -2.445094,-6.44683 z m 63.169837,16.43901 c -0.39237,0.94406 -0.87158,2.02595 -0.4619,3.09817 1.26448,3.30966 5.27278,4.36762 1.32384,7.7913 -5.8815,5.09912 -16.22007,10.32942 -22.33994,11.63832 4.65631,0.19602 9.7132,-1.07141 13.9637,-3.21162 3.40806,-1.71601 14.4531,-7.49799 10.43052,-13.6834 -0.51585,-1.04607 -2.03494,-3.79082 -0.13703,-2.52871 0,-1.6089 -2.55472,-3.10406 -2.77919,-3.10406 z M 30.503218,171.95136 c -0.360805,0.99034 -0.557405,2.08322 -0.4236,3.24441 2.454994,3.35547 8.261757,5.88528 11.646861,9.96371 -2.788736,1.84549 -12.566319,7.65101 -15.085324,7.04613 -2.967299,-0.71256 1.419613,-8.9096 1.419613,-8.9096 l -0.4236,-1.01996 -0.673708,0.67408 c -1.1515,2.07052 -6.978669,13.0664 -0.846832,13.0664 3.801142,0 12.066933,-5.2593 15.506125,-8.5048 1.028137,-0.97026 1.463192,-2.88988 1.104285,-5.01377 -3.496031,-4.28507 -9.822068,-6.26651 -12.22382,-10.5466 z m 83.780082,2.01439 c -3.2043,1.23061 -1.07967,2.57672 0.21475,3.30076 l -1.25828,2.35264 2.7372,1.86679 1.30026,-2.45688 c -0.82964,-0.49399 -1.63607,-0.99505 -2.16809,-1.42551 0.27696,-0.78653 0.81373,-1.68729 1.50286,-2.39131 z m 3.93911,10.2246 c 0,0 1.4601,3.68337 -1.09436,4.72333 -3.31584,1.34988 -2.06713,-3.73344 -4.44006,-2.68673 -21.612424,9.53316 -20.868336,3.55182 -26.359352,0.83504 l -0.363933,2.44215 c 10.739312,9.92087 23.209295,-1.2367 27.567165,0.45933 0,0 1.35331,2.73978 4.1476,1.613 4.30109,-1.73447 1.44319,-7.19237 1.44319,-7.19237 z m -9.07683,7.29366 -1.71171,2.44509 c 2.38165,1.74168 3.01911,2.21257 4.18959,-0.43538 z"
         sodipodi:nodetypes="cccccscccccccssccccccsccccccccscccccccccsccccccccccscccccsccccccccccscccccccccccccccccccccccc" /><path
         id="path124"
         style="fill:#808000;stroke:none;stroke-width:5.77019"
         d="m 50.731483,156.65631 c -0.0428,0.0151 -0.200431,0.35673 -0.551417,1.19271 -0.689241,1.64122 -1.373482,3.30507 -1.011115,4.29973 0.372345,1.02202 1.465536,1.05732 1.932354,0.19376 0.4674,-0.86351 0.401019,-1.33837 0.334091,-1.87269 -0.378404,0.31408 -0.569925,1.02863 -0.984226,0.77243 -0.870529,-0.53824 0.433181,-4.6396 0.280313,-4.58594 z m 59.902227,0.65898 c -0.0385,9.3e-4 -0.0778,0.004 -0.11935,0.009 -1.14301,0.13133 -1.16967,2.09716 -1.35662,3.34865 -0.46768,3.12744 -0.66651,1.83125 -1.83106,-0.16097 -2.12393,-3.6336 -3.17103,-0.30244 -2.39426,0.33078 0.64256,0.52405 1.35518,0.24923 1.66677,-0.16391 1.19028,0.99039 1.7361,2.92389 2.12905,4.66954 1.48069,-1.50071 0.46798,-6.46194 1.39236,-6.89989 0.52566,-0.24916 1.32532,1.66893 1.35994,1.24943 0.056,-0.64978 0.34465,-2.41213 -0.84683,-2.38247 z m 25.5674,0.47259 c -0.0384,7.1e-4 -0.0807,0.003 -0.12229,0.007 -1.14301,0.10409 -1.16968,1.66236 -1.35663,2.65432 -0.46768,2.47889 -0.66644,1.45164 -1.83105,-0.12745 -2.12394,-2.88008 -3.16811,-0.23963 -2.39132,0.26226 0.64257,0.41538 1.35224,0.19745 1.66383,-0.13003 1.19027,0.78501 1.7361,2.31751 2.12906,3.70116 1.48061,-1.18949 0.47127,-5.12209 1.39567,-5.46923 0.52564,-0.19749 1.32201,1.32298 1.35662,0.99049 0.0562,-0.51508 0.34761,-1.91203 -0.84389,-1.88852 z m -99.821202,1.72498 c -0.03766,8.5e-4 -0.07876,0.004 -0.119345,0.009 -1.118495,0.1194 -1.143875,1.90675 -1.326789,3.0444 -0.457673,2.8432 -0.652409,1.66179 -1.792013,-0.14918 -2.078383,-3.30297 -3.100963,-0.27161 -2.340852,0.30426 0.628789,0.47638 1.323445,0.22351 1.628098,-0.15213 1.164717,0.90032 1.700186,2.6594 2.084482,4.24631 1.449051,-1.36424 0.457984,-5.87556 1.362519,-6.2737 0.514402,-0.22648 1.295487,1.5174 1.330104,1.13599 0.05489,-0.5907 0.339749,-2.19173 -0.826204,-2.16479 z m 34.264468,1.31205 c -0.05866,0.0206 -0.27679,0.49167 -0.757691,1.63694 -0.945609,2.25181 -1.883681,4.53328 -1.386462,5.89799 0.51106,1.40261 2.013002,1.45083 2.653947,0.26558 0.641074,-1.18526 0.547766,-1.83712 0.456015,-2.57033 -0.519307,0.43109 -0.781794,1.4165 -1.350732,1.06452 -1.19518,-0.7387 0.594728,-6.36832 0.384923,-6.2947 z m 45.905004,0.95992 c -0.0588,0.0206 -0.27557,0.48984 -0.75733,1.6373 -0.94596,2.25263 -1.88385,4.53571 -1.38646,5.90094 0.51106,1.40262 2.01301,1.45046 2.65395,0.26521 0.64106,-1.18525 0.54776,-1.83712 0.45601,-2.57033 -0.5193,0.43109 -0.78177,1.41356 -1.35072,1.06158 -1.19511,-0.73876 0.59435,-6.36839 0.38455,-6.2947 z m -17.47922,0.86488 c -0.05881,0.0206 -0.272987,0.48948 -0.754745,1.63694 -0.945967,2.25262 -1.886795,4.53607 -1.389405,5.9013 0.511054,1.40262 2.012981,1.45046 2.653942,0.26521 0.641058,-1.18525 0.550718,-1.83711 0.458968,-2.57033 -0.519327,0.43109 -0.784744,1.41356 -1.353684,1.06158 -1.195126,-0.7387 0.594786,-6.36833 0.384924,-6.2947 z m -13.4156,0.54847 c -0.03849,0.001 -0.08075,0.004 -0.122295,0.009 -1.143012,0.13132 -1.169664,2.09679 -1.356623,3.34828 -0.467681,3.12744 -0.666095,1.8283 -1.830691,-0.16391 -2.123949,-3.63361 -3.16809,-0.29913 -2.391312,0.33409 0.64255,0.52405 1.352232,0.24628 1.663824,-0.16686 1.190279,0.99039 1.736103,2.92389 2.129054,4.66954 1.480685,-1.5007 0.470916,-6.4623 1.395299,-6.90026 0.52566,-0.24916 1.322011,1.66893 1.356624,1.24944 0.05603,-0.64984 0.347603,-2.40913 -0.84388,-2.37953 z m 48.66061,6.16651 c -0.0428,0.0151 -0.20041,0.35378 -0.55142,1.18977 -0.68924,1.64121 -1.37349,3.30506 -1.01111,4.29972 0.37234,1.02202 1.46555,1.05763 1.93235,0.19412 0.46739,-0.86351 0.40102,-1.33836 0.33409,-1.87268 -0.3784,0.31407 -0.56992,1.03157 -0.98422,0.77537 -0.87049,-0.53824 0.43317,-4.63996 0.28031,-4.5863 z m -94.91444,0.89472 c -0.0428,0.015 -0.197853,0.35378 -0.548839,1.18976 h -0.0026 c -0.689255,1.64122 -1.373483,3.30507 -1.011115,4.29973 0.372344,1.02202 1.468496,1.05732 1.935301,0.19375 0.467387,-0.86351 0.401019,-1.33836 0.334091,-1.87268 -0.378418,0.31407 -0.572872,1.03157 -0.987172,0.77537 -0.87053,-0.53824 0.433181,-4.63959 0.280312,-4.58593 z m 45.311591,1.49365 c -0.04284,0.015 -0.200396,0.35704 -0.551413,1.19308 -0.689246,1.64121 -1.37311,3.30506 -1.010746,4.29973 0.372365,1.02201 1.468112,1.05732 1.93493,0.19375 0.467374,-0.86351 0.40102,-1.33837 0.334088,-1.87268 -0.378388,0.31407 -0.572504,1.02862 -0.986803,0.77242 -0.87056,-0.53818 0.432853,-4.63996 0.279944,-4.5863 z m -31.464285,2.28707 c -0.03766,8.6e-4 -0.07531,0.005 -0.116029,0.009 -1.118482,0.11939 -1.147191,1.90675 -1.330104,3.0444 -0.457703,2.84313 -0.649461,1.66473 -1.789067,-0.14624 -2.078369,-3.30296 -3.103915,-0.27455 -2.343798,0.30131 0.628774,0.47639 1.326393,0.22351 1.631044,-0.15212 1.164718,0.90031 1.697238,2.65902 2.081536,4.24594 1.449038,-1.36425 0.46093,-5.87261 1.365465,-6.27075 0.514402,-0.22648 1.295473,1.51444 1.330105,1.13304 0.05489,-0.59076 0.337144,-2.19179 -0.828783,-2.16479 z m -27.710083,-0.95342 c -0.04275,0.015 -0.201318,0.35892 -0.551417,1.19271 -0.688885,1.6404 -1.373298,3.30263 -1.011115,4.29678 0.37235,1.022 1.468492,1.05731 1.9353,0.19375 0.467386,-0.8635 0.401026,-1.33837 0.334092,-1.87268 -0.37841,0.31407 -0.572874,1.03158 -0.987173,0.77537 -0.870529,-0.53818 0.43317,-4.6396 0.280313,-4.58593 z m 107.205847,3.91457 c -0.0383,9.3e-4 -0.0807,0.004 -0.12229,0.009 -1.14301,0.13133 -1.16969,2.09717 -1.35663,3.34865 -0.46768,3.12745 -0.66608,1.83126 -1.83069,-0.16096 -2.12393,-3.63359 -3.16848,-0.30243 -2.39168,0.33077 0.64256,0.52406 1.35224,0.24924 1.66383,-0.16391 1.19027,0.99039 1.73609,2.92389 2.12905,4.66954 1.48062,-1.5007 0.47127,-6.46193 1.39567,-6.89989 0.52565,-0.24916 1.32201,1.66892 1.35663,1.24944 0.0562,-0.64984 0.3476,-2.41214 -0.84389,-2.38248 z m -74.479969,1.20155 c -0.05881,0.0207 -0.272988,0.48654 -0.754745,1.634 -0.945965,2.25262 -1.886799,4.53606 -1.389408,5.9013 0.511067,1.40255 2.012994,1.45047 2.653947,0.26521 0.641074,-1.18526 0.550713,-1.83712 0.458961,-2.57033 -0.519306,0.43108 -0.784732,1.41651 -1.353678,1.06452 -1.195116,-0.73869 0.594728,-6.36833 0.384923,-6.2947 z m 46.209259,0.60225 v 3.7e-4 c -0.0385,7.1e-4 -0.0807,0.004 -0.1223,0.009 -1.14299,0.13133 -1.16968,2.09679 -1.35662,3.34828 -0.46768,3.12744 -0.66646,1.8283 -1.83105,-0.16391 -2.123945,-3.6336 -3.1681,-0.29911 -2.391322,0.33409 0.642565,0.52405 1.352242,0.24629 1.663832,-0.16686 1.19026,0.99039 1.73609,2.92685 2.12905,4.67249 1.48068,-1.50071 0.47128,-6.46192 1.39567,-6.89989 0.52566,-0.24915 1.322,1.66562 1.35663,1.24612 0.056,-0.64983 0.34759,-2.40919 -0.84389,-2.37953 z m -70.257963,3.53387 c -0.0328,5.1e-4 -0.06572,0.003 -0.101296,0.006 -0.976579,0.0795 -1.000208,1.26774 -1.159928,2.02445 -0.399597,1.89123 -0.570474,1.10618 -1.565479,-0.0983 -1.814643,-2.19678 -2.706149,-0.18055 -2.042489,0.20259 0.548991,0.31678 1.156186,0.14849 1.422191,-0.1013 1.016907,0.59883 1.48337,1.76827 1.818903,2.82376 1.265165,-0.90736 0.400019,-3.90669 1.189764,-4.17154 0.44914,-0.15066 1.129923,1.00826 1.159927,0.75437 0.04794,-0.39288 0.296385,-1.4577 -0.721593,-1.43987 z m 108.407393,4.72008 c -0.0588,0.0207 -0.27263,0.48948 -0.75437,1.63693 h -0.003 c -0.94597,2.25263 -1.88386,4.5357 -1.38647,5.90094 0.51106,1.40261 2.01299,1.45083 2.65395,0.26558 0.64106,-1.18526 0.5507,-1.83713 0.45896,-2.57033 -0.51932,0.43108 -0.78473,1.41356 -1.35368,1.06157 -1.19511,-0.73869 0.59442,-6.36832 0.38455,-6.29469 z m -101.578958,2.63589 c -0.0428,0.015 -0.200813,0.35668 -0.551785,1.19271 -0.689256,1.64122 -1.373115,3.30211 -1.010747,4.29678 0.372344,1.02202 1.465549,1.05732 1.932354,0.19376 0.467387,-0.8635 0.400651,-1.33799 0.333723,-1.87232 -0.378404,0.31407 -0.569556,1.03121 -0.983858,0.77501 -0.870528,-0.53819 0.433182,-4.63961 0.280313,-4.58594 z m 43.522899,0.22948 c -0.03044,7e-4 -0.06258,-1.7e-4 -0.09541,0.003 -0.905045,0.0905 -0.925068,1.44589 -1.073365,2.30807 -0.370391,2.15464 -0.53015,1.26196 -1.452395,-0.11051 -1.681951,-2.50323 -2.508468,-0.2097 -1.89331,0.22653 0.508816,0.36121 1.070978,0.17133 1.317948,-0.11308 0.942559,0.68227 1.376752,2.01458 1.687774,3.21715 1.172794,-1.03384 0.371196,-4.451 1.103203,-4.75279 0.416274,-0.17166 1.044511,1.14771 1.073365,0.85862 0.04434,-0.44764 0.275667,-1.65754 -0.667812,-1.63694 z m -19.399788,0.71276 c -0.04284,0.015 -0.197844,0.35671 -0.548838,1.19271 -0.689259,1.6412 -1.376065,3.30212 -1.013694,4.29678 0.372343,1.02203 1.468498,1.05732 1.9353,0.19375 0.467387,-0.86351 0.400663,-1.33503 0.333724,-1.86937 -0.37841,0.31408 -0.572507,1.02826 -0.986805,0.77206 -0.870544,-0.5382 0.433221,-4.63959 0.280313,-4.58593 z"
         sodipodi:nodetypes="ccccccccccccccccccccccccccccccccsccccccccccccccccccccccccccccccccccccccccsccccccccccccccccccccccccccccccccccccccccccccccccccccccccccccccccccccccccccccccccccccccccccccccccccccccccccccscccc" /></g></g></svg>
